<svg id="Layer_1" data-name="Layer 1" xmlns="http://www.w3.org/2000/svg" viewBox="0 0 260.74 182.96"><defs><style>.cls-1{fill:#dbb239;}</style></defs><title>icon_yellow</title><path class="cls-1" d="M185.46,152.4a91.44,91.44,0,0,0-81.15,49.47C98.54,202,88,199.17,77.5,181c-4.83-8.3-10.92-13.15-18.11-14.42a22.29,22.29,0,0,0-4.86-.29c-1.36-8.37-5.1-14.17-8.61-14.17s-7.59,6.27-8.79,15.2c-0.27,2-.51,3.78-0.71,5.46a143.56,143.56,0,0,0-16,12.09l-2.65,2.2a4.51,4.51,0,1,0,5.73,7l2.7-2.24c2.94-2.45,6.23-5.19,9.68-7.72,0.06,2.45.22,5.23,0.53,8.64,0.48,8.13,6.7,128.52,6.8,132.32S43.8,335,45.93,335s2.66-6.09,2.76-9.89S55,200.91,55.48,192.78a86.78,86.78,0,0,0,.22-17.44,13,13,0,0,1,2.13.18c4.52,0.8,8.4,4.09,11.88,10.06,10.75,18.48,22.25,24,30.62,25.09A91.35,91.35,0,1,0,185.46,152.4ZM46,163.53c1.52,0,2.9,1.32,3.93,3.45a38.68,38.68,0,0,0-9,3.3C41.93,166.28,43.82,163.53,46,163.53ZM51.74,176c0,6.92-2.56,12.52-5.72,12.52-2.39,0-4.44-3.22-5.29-7.78a36.86,36.86,0,0,1,11-5C51.73,175.88,51.74,176,51.74,176ZM264.4,220.36a82.06,82.06,0,0,1,3.4,23.27c-40.54-36.48-60.17-67.35-67.59-80.86A81.8,81.8,0,0,1,228,173.3C230.25,177.8,238.63,192.44,264.4,220.36Zm-75-58.85c4.82,10,25.15,47.64,77.65,93.47a81.67,81.67,0,0,1-3.75,15.66c-5.41-2.5-18-9.93-40.78-31.66-27.32-26-46.73-62.78-53.19-76a82.39,82.39,0,0,1,16.16-1.6C186.77,161.42,188.07,161.46,189.37,161.52ZM241.49,304c-11.94-14.85-17.09-35-18.9-44,3-.34,5.91-0.59,8.83-0.78,5.42,4.63,10.08,8.27,14.07,11.13a59.59,59.59,0,0,0,3.75,25.41A83.14,83.14,0,0,1,241.49,304ZM103.12,243.76a82,82,0,0,1,5.11-28.54c15.76-6.4,53.36-19.9,69.56-18.33a297.71,297.71,0,0,0,17,24.53c-33.55,2-75.68,18.28-91.59,24.9C103.16,245.47,103.12,244.62,103.12,243.76Zm52.13-69.2a74.8,74.8,0,0,1,8.86-1.74c2.14,4.16,4.89,9.28,8.21,15-11.56.61-26.86,4.73-40.19,9.08A141.1,141.1,0,0,0,155.25,174.56Zm46.69,55.7a200.49,200.49,0,0,0,14.34,15.26c2,1.93,4,3.74,5.85,5.47-46.57,5.12-95.07,25.91-108.93,32.21A81.71,81.71,0,0,1,104,255.79C117.63,250.08,167.73,230.14,201.93,230.26ZM157.3,275.61c3,8.29,11,27.46,26.67,50.47a82.16,82.16,0,0,1-18.59-2.45c-19.83-24-24-37.05-24.83-42C145.65,279.71,151.28,277.65,157.3,275.61Zm8.59-2.82c5.24-1.66,10.7-3.27,16.3-4.78,3.89,9.17,15.37,34.63,30.4,53.48a81.67,81.67,0,0,1-18,4.09C177.74,301.83,169.08,281.3,165.9,272.79Zm25.16-7c4.57-1.1,9.2-2.1,13.84-3,3.26,8.78,13.77,34.49,29.32,47.31a82.42,82.42,0,0,1-12.92,7.82C207,300.76,195.42,275.83,191.06,265.75Zm-73,25.18c3.23-1.44,8-3.51,14-5.91,1.44,6.31,5.69,16.81,17.34,32.71A82.89,82.89,0,0,1,118,290.93Z" transform="translate(-16.09 -152.17)"/></svg>